<svg xmlns="http://www.w3.org/2000/svg" xmlns:xlink="http://www.w3.org/1999/xlink" width="72" height="72" viewBox="0 0 72 72">
  <defs>
    <style>
      .cls-1 {
        fill: #ec008c;
      }

      .cls-2 {
        clip-path: url(#clip-g2);
      }

      .cls-3 {
        clip-path: url(#clip-path);
      }

      .cls-4 {
        clip-path: url(#clip-path-2);
      }
    </style>
    <clipPath id="clip-path">
      <rect id="Rectangle_2" data-name="Rectangle 2" class="cls-1" width="54" height="54.001" transform="translate(0 0)"/>
    </clipPath>
    <clipPath id="clip-path-2">
      <rect id="Rectangle_6" data-name="Rectangle 6" class="cls-1" width="24" height="24.652"/>
    </clipPath>
    <clipPath id="clip-g2">
      <rect width="72" height="72"/>
    </clipPath>
  </defs>
  <g id="g2" class="cls-2">
    <g id="Group_8" data-name="Group 8">
      <g id="Group_7" data-name="Group 7" transform="translate(9 9)">
        <g id="Group_2" data-name="Group 2" class="cls-3">
          <path id="Path_4" data-name="Path 4" class="cls-1" d="M27,0A27,27,0,1,0,54,27,27.031,27.031,0,0,0,27,0m0,50.538A23.538,23.538,0,1,1,50.538,27,23.564,23.564,0,0,1,27,50.538" transform="translate(0 0)"/>
        </g>
      </g>
    </g>
    <g id="Group_10" data-name="Group 10" transform="translate(24 24)">
      <g id="Group_9" data-name="Group 9" class="cls-4">
        <path id="Path_5" data-name="Path 5" class="cls-1" d="M373.37,26.808h-3.684c.1-.579.456-.9,1.18-1.269l.679-.345c1.213-.623,1.858-1.324,1.858-2.471a2,2,0,0,0-.835-1.7,3.2,3.2,0,0,0-1.981-.612,3.076,3.076,0,0,0-1.681.478,2.842,2.842,0,0,0-1.113,1.213l1.068,1.069a1.94,1.94,0,0,1,1.8-1.247c.668,0,1.079.345,1.079.824,0,.4-.2.735-.968,1.124l-.434.211a4.71,4.71,0,0,0-1.981,1.647,4.422,4.422,0,0,0-.567,2.348v.256h5.576Z" transform="translate(-351.927 -19.529)"/>
        <path id="Path_6" data-name="Path 6" class="cls-1" d="M282.682,244.9h-6.1l-3.05,5.283h6.1l3.05,5.283,3.05-5.283Z" transform="translate(-261.732 -234.333)"/>
        <path id="Path_7" data-name="Path 7" class="cls-1" d="M12.326,19.369a7.043,7.043,0,0,1,0-14.087L14.737.236a12.327,12.327,0,1,0,4.848,22.051l-2.67-4.625a7.011,7.011,0,0,1-4.589,1.707"/>
      </g>
    </g>
  </g>
</svg>
