<svg xmlns="http://www.w3.org/2000/svg" xmlns:xlink="http://www.w3.org/1999/xlink" width="72" height="72" viewBox="0 0 72 72">
  <defs>
    <style>
      .cls-1 {
        fill: #ec008c;
      }

      .cls-2 {
        clip-path: url(#clip-linkedin);
      }

      .cls-3 {
        clip-path: url(#clip-path);
      }
    </style>
    <clipPath id="clip-path">
      <rect id="Rectangle_1" data-name="Rectangle 1" class="cls-1" width="54" height="54" transform="translate(0 0)"/>
    </clipPath>
    <clipPath id="clip-linkedin">
      <rect width="72" height="72"/>
    </clipPath>
  </defs>
  <g id="linkedin" class="cls-2">
    <g id="Group_1" data-name="Group 1" class="cls-3" transform="translate(9 9)">
      <path id="Path_1" data-name="Path 1" class="cls-1" d="M20.608,24.661h5.165V41.252H20.608Zm2.583-8.245A2.99,2.99,0,1,1,20.2,19.4a2.99,2.99,0,0,1,2.993-2.988m5.818,24.836h5.154V33.045c0-2.164.409-4.259,3.094-4.259,2.642,0,2.68,2.474,2.68,4.4v8.066H45.09v-9.1c0-4.468-.963-7.9-6.184-7.9a5.423,5.423,0,0,0-4.884,2.681h-.067v-2.27H29.008Z" transform="translate(-5.644 -4.587)"/>
      <path id="Path_2" data-name="Path 2" class="cls-1" d="M27,0A27,27,0,1,0,54,27,27.031,27.031,0,0,0,27,0m0,50.538A23.537,23.537,0,1,1,50.538,27,23.564,23.564,0,0,1,27,50.538" transform="translate(0 0)"/>
    </g>
  </g>
</svg>
