<svg xmlns="http://www.w3.org/2000/svg" xmlns:xlink="http://www.w3.org/1999/xlink" width="72" height="72" viewBox="0 0 72 72">
  <defs>
    <style>
      .cls-1 {
        fill: #ec008c;
      }

      .cls-2 {
        clip-path: url(#clip-youtube);
      }

      .cls-3 {
        clip-path: url(#clip-path);
      }
    </style>
    <clipPath id="clip-path">
      <rect id="Rectangle_2" data-name="Rectangle 2" class="cls-1" width="54" height="54.001" transform="translate(0 0)"/>
    </clipPath>
    <clipPath id="clip-youtube">
      <rect width="72" height="72"/>
    </clipPath>
  </defs>
  <g id="youtube" class="cls-2">
    <g id="Group_3" data-name="Group 3" transform="translate(9 9)">
      <g id="Group_2" data-name="Group 2" class="cls-3">
        <path id="Path_3" data-name="Path 3" class="cls-1" d="M46.3,30.083a6.307,6.307,0,0,0-6.307-6.307H23.762a6.307,6.307,0,0,0-6.307,6.307V37.2a6.307,6.307,0,0,0,6.307,6.307H39.993A6.307,6.307,0,0,0,46.3,37.2Zm-8.926,3.748-7.259,3.578c-.283.153-1.274-.052-1.274-.374V29.691c0-.326,1-.532,1.282-.37l6.936,3.766c.29.166.609.585.315.744" transform="translate(-4.877 -6.644)"/>
        <path id="Path_4" data-name="Path 4" class="cls-1" d="M27,0A27,27,0,1,0,54,27,27.031,27.031,0,0,0,27,0m0,50.538A23.538,23.538,0,1,1,50.538,27,23.564,23.564,0,0,1,27,50.538" transform="translate(0 0)"/>
      </g>
    </g>
  </g>
</svg>
