<?xml version="1.0" encoding="iso-8859-1"?>
<!-- Generator: Adobe Illustrator 19.0.0, SVG Export Plug-In . SVG Version: 6.00 Build 0)  -->
<svg version="1.1" id="Layer_1" xmlns="http://www.w3.org/2000/svg" xmlns:xlink="http://www.w3.org/1999/xlink" x="0px" y="0px"
	 viewBox="0 0 512 512" style="enable-background:new 0 0 512 512;" xml:space="preserve">
<path style="fill:#0084FF;" d="M470.204,109.404h-84.731h-7.451l-31.852-46.259h-180.34l-31.853,46.259h-7.451H41.796
	c-17.312,0-31.347,13.992-31.347,31.251v276.948c0,17.26,14.035,31.251,31.347,31.251h428.408c17.312,0,31.347-13.992,31.347-31.251
	V140.655C501.551,123.396,487.516,109.404,470.204,109.404z"/>
<rect x="55.38" y="73.393" style="fill:#FF1A1A;" width="50.155" height="36.008"/>
<rect x="55.38" y="169.252" style="fill:#FFFFFF;" width="240.849" height="229.449"/>
<path style="fill:#5AB8FF;" d="M101.355,275.183c0-11.577,9.239-20.952,20.74-21.272c-7.906-8.365-7.811-21.521,0.377-29.709
	c8.187-8.186,21.341-8.283,29.709-0.377c0.322-11.501,9.695-20.74,21.272-20.74s20.951,9.239,21.272,20.74
	c8.365-7.905,21.522-7.809,29.709,0.377c8.186,8.188,8.284,21.343,0.377,29.709c11.501,0.321,20.74,9.695,20.74,21.272
	c0,11.578-9.239,20.953-20.74,21.272c7.906,8.366,7.809,21.522-0.377,29.71c-8.187,8.187-21.343,8.283-29.709,0.378
	c-0.322,11.501-9.695,20.738-21.272,20.738s-20.951-9.237-21.272-20.738c-8.368,7.905-21.522,7.809-29.709-0.378
	c-8.188-8.188-8.284-21.343-0.377-29.71C110.594,296.136,101.355,286.761,101.355,275.183z"/>
<circle style="fill:#FFD41D;" cx="173.453" cy="275.288" r="34.503"/>
<path d="M446.171,175.746c-9.218,0-16.718,7.499-16.718,16.718s7.5,16.718,16.718,16.718s16.718-7.499,16.718-16.718
	C462.89,183.245,455.389,175.746,446.171,175.746z"/>
<path d="M470.204,98.955h-86.69L354.776,57.22c-1.95-2.833-5.168-4.523-8.606-4.523h-180.34c-3.438,0-6.656,1.691-8.606,4.523
	l-28.739,41.735h-12.502V73.396c0-5.77-4.678-10.449-10.449-10.449H55.38c-5.771,0-10.449,4.679-10.449,10.449v25.559h-3.135
	C18.75,98.955,0,117.661,0,140.655v276.948c0,22.994,18.75,41.7,41.796,41.7h428.408c23.046,0,41.796-18.706,41.796-41.7V140.655
	C512,117.661,493.25,98.955,470.204,98.955z M65.829,83.845h29.257v15.11H65.829V83.845z M491.102,417.603
	c0,11.471-9.375,20.802-20.898,20.802H41.796c-11.523,0-20.898-9.332-20.898-20.802V140.655c0-11.471,9.375-20.802,20.898-20.802
	h92.182c3.438,0,6.656-1.692,8.606-4.523l28.739-41.735h169.356l28.738,41.735c1.95,2.832,5.168,4.523,8.606,4.523h92.182
	c11.523,0,20.898,9.332,20.898,20.802V417.603z"/>
<path d="M335.659,322.396h-4.678c-5.771,0-10.449,4.678-10.449,10.449c0,5.77,4.678,10.449,10.449,10.449h4.678
	c5.771,0,10.449-4.679,10.449-10.449S341.43,322.396,335.659,322.396z"/>
<path d="M456.62,322.396h-87.157c-5.771,0-10.449,4.678-10.449,10.449c0,5.77,4.678,10.449,10.449,10.449h87.157
	c5.771,0,10.449-4.679,10.449-10.449S462.391,322.396,456.62,322.396z"/>
<path d="M335.659,364.279h-4.678c-5.771,0-10.449,4.679-10.449,10.449s4.678,10.449,10.449,10.449h4.678
	c5.771,0,10.449-4.679,10.449-10.449S341.43,364.279,335.659,364.279z"/>
<path d="M456.62,364.279h-87.157c-5.771,0-10.449,4.679-10.449,10.449s4.678,10.449,10.449,10.449h87.157
	c5.771,0,10.449-4.679,10.449-10.449S462.391,364.279,456.62,364.279z"/>
<path d="M296.231,158.803H55.38c-5.771,0-10.449,4.678-10.449,10.449v229.447c0,5.771,4.678,10.449,10.449,10.449h240.851
	c5.771,0,10.449-4.678,10.449-10.449V169.252C306.68,163.481,302.002,158.803,296.231,158.803z M131.747,292.454
	c-1.578-3.807-5.244-6.33-9.362-6.444c-5.933-0.165-10.581-4.92-10.581-10.827c0-5.906,4.648-10.662,10.582-10.827
	c4.118-0.114,7.784-2.638,9.362-6.445c1.577-3.805,0.771-8.183-2.059-11.177c-4.078-4.315-4.003-10.966,0.172-15.142
	c2.041-2.04,4.752-3.164,7.635-3.164c2.799,0,5.466,1.064,7.509,2.993c2.995,2.829,7.371,3.635,11.177,2.058
	c3.806-1.578,6.329-5.244,6.444-9.361c0.166-5.934,4.921-10.583,10.827-10.583c5.906,0,10.662,4.649,10.827,10.583
	c0.115,4.118,2.638,7.783,6.445,9.361c3.807,1.578,8.183,0.771,11.176-2.058c2.042-1.93,4.708-2.993,7.508-2.993
	c2.883,0,5.595,1.124,7.635,3.163c4.175,4.176,4.251,10.827,0.172,15.143c-2.831,2.995-3.636,7.373-2.059,11.177
	c1.578,3.807,5.243,6.331,9.362,6.445c5.934,0.165,10.582,4.921,10.582,10.827c0,5.907-4.648,10.662-10.581,10.827
	c-4.118,0.114-7.786,2.637-9.362,6.444c-1.578,3.807-0.771,8.184,2.058,11.177c4.078,4.316,4.003,10.968-0.172,15.144
	c-2.04,2.041-4.752,3.164-7.636,3.164c-2.798,0-5.465-1.063-7.507-2.992c-2.995-2.829-7.372-3.636-11.176-2.058
	c-3.806,1.578-6.329,5.242-6.444,9.361c-0.166,5.933-4.921,10.581-10.827,10.581c-5.906,0-10.662-4.648-10.827-10.581
	c-0.115-4.117-2.638-7.783-6.444-9.36c-1.293-0.537-2.651-0.797-3.999-0.797c-2.62,0-5.2,0.985-7.177,2.853
	c-2.043,1.931-4.709,2.993-7.509,2.993c-2.883,0-5.594-1.123-7.635-3.164c-4.175-4.175-4.251-10.827-0.172-15.144
	C132.519,300.638,133.325,296.26,131.747,292.454z M285.782,388.25h-101.88v-32.259c7.314-2.519,13.391-7.62,17.153-14.263
	c2.696,0.731,5.501,1.11,8.355,1.11c8.466,0,16.425-3.298,22.413-9.286c8.381-8.383,11.14-20.154,8.212-30.787
	c9.59-5.447,15.965-15.723,15.965-27.582c0-11.859-6.375-22.134-15.964-27.581c2.925-10.632,0.167-22.404-8.214-30.788
	c-5.987-5.986-13.947-9.285-22.412-9.285c-2.854,0-5.659,0.378-8.354,1.111c-5.443-9.611-15.729-16.003-27.603-16.003
	c-11.874,0-22.16,6.393-27.603,16.003c-2.696-0.731-5.501-1.111-8.355-1.111c-8.465,0-16.424,3.298-22.412,9.285
	c-8.382,8.382-11.141,20.155-8.214,30.788c-9.588,5.447-15.963,15.723-15.963,27.581c0,11.861,6.375,22.135,15.964,27.581
	c-2.927,10.634-0.169,22.406,8.213,30.789c5.987,5.987,13.947,9.285,22.412,9.285c2.854,0,5.659-0.377,8.355-1.11
	c3.762,6.642,9.839,11.743,17.153,14.263v32.259H65.829V179.701h219.953V388.25z"/>
<path d="M173.453,320.239c24.784,0,44.947-20.163,44.947-44.947c0-24.784-20.163-44.946-44.947-44.946
	c-24.785,0-44.949,20.162-44.949,44.946C128.504,300.075,148.668,320.239,173.453,320.239z M173.453,251.244
	c13.261,0,24.049,10.788,24.049,24.048s-10.789,24.048-24.049,24.048c-13.262,0-24.051-10.789-24.051-24.049
	C149.402,262.031,160.191,251.244,173.453,251.244z"/>
<g>
</g>
<g>
</g>
<g>
</g>
<g>
</g>
<g>
</g>
<g>
</g>
<g>
</g>
<g>
</g>
<g>
</g>
<g>
</g>
<g>
</g>
<g>
</g>
<g>
</g>
<g>
</g>
<g>
</g>
</svg>
