<?xml version="1.0" encoding="UTF-8" standalone="no"?>
<svg xmlns:dc="http://purl.org/dc/elements/1.1/" xmlns:cc="http://creativecommons.org/ns#" xmlns:rdf="http://www.w3.org/1999/02/22-rdf-syntax-ns#" xmlns:svg="http://www.w3.org/2000/svg" xmlns="http://www.w3.org/2000/svg" id="svg12" version="1.1" height="738" width="738">
  <metadata id="metadata18">
    <rdf:RDF>
      <cc:Work rdf:about="">
        <dc:format>image/svg+xml</dc:format>
        <dc:type rdf:resource="http://purl.org/dc/dcmitype/StillImage"/>
        <dc:title/>
      </cc:Work>
    </rdf:RDF>
  </metadata>
  <defs id="defs16"/>
  <path style="opacity:1;stroke-linejoin:miter;stroke-opacity:1;fill-opacity:1;stroke:#227f0b;stroke-miterlimit:4;stroke-dasharray:none;stroke-width:50;fill:none" d="M25 25 h713 h-25 v713 v-25 h-713 h25 z" id="rect3724"/>
  <path style="opacity:1;stroke-linejoin:round;stroke-opacity:1;fill-opacity:1;stroke:none;stroke-miterlimit:4;stroke-dasharray:none;stroke-width:2.82842712475;fill:#227f0b" d="M368.52344 77.306647C291.188908889 77.3063287379 217.02170724 108.02720948 162.337934277 162.710979254C107.654161314 217.394749029 76.9332762472 291.561948887 76.93359 368.896479996C76.937261714 518.706747664 190.463272466 644.138422854 339.53125 659.0332C339.12697 649.74656 338.51529 639.80553 337.55859 632.79491C325.83757 546.90381 309.18388 460.95228 281.14258 378.92577C244.55011 271.88536 166.96875 165.35351 166.96875 165.35351C166.96875 165.35351 205.17194 181.97022 222.27148 195.85351C248.0031 216.74528 271.12878 249.33963 288.80859 278.03515C336.99545 356.24566 371.13867 525.33593 371.13867 525.33593C371.13867 525.33593 408.96997 422.64489 432.92773 373.55273C454.21537 329.93194 484.40463 287.16268 508.31055 248.24023C494.00737 246.46754 481.64869 258.18931 469.81836 268.08984C453.59372 281.66788 427.94726 326.47265 427.94726 326.47265C427.94726 326.47265 431.41944 274.49302 437.2832 257.54687C445.89537 232.6579 463.58998 211.27434 483.90234 200.66991C498.47431 193.06236 564.92987 181.54862 588.17773 177.67773C532.906677347 114.047679694 452.806612473 77.4459349265 368.52344 77.306647C368.52344 77.306647 368.52344 77.306647 368.52344 77.306647M616.35742 215.65624C612.53296 245.02125 605.20965 284.64246 592.05078 304.42382C583.22022 317.69856 559.32019 328.98267 544.94336 335.87499C521.73259 347.00234 485.86914 348.58788 485.86914 348.58788C485.86914 348.58788 450.44061 412.94016 438.29883 447.42968C414.51081 515.00109 398.20643 589.31756 389.63086 656.75585C389.50425 657.7515 389.39063 658.74431 389.27344 659.73827C541.870618938 648.851165121 660.107361422 521.881538279 660.11133 368.89648C660.039046372 314.744523182 644.888514532 261.682496604 616.35742 215.65624C616.35742 215.65624 616.35742 215.65624 616.35742 215.65624" id="path3729"/>
</svg>
